<?xml version="1.0" encoding="utf-8"?>
<!-- Generator: Adobe Illustrator 27.1.1, SVG Export Plug-In . SVG Version: 6.00 Build 0)  -->
<svg version="1.1" id="Calque_1" xmlns="http://www.w3.org/2000/svg" xmlns:xlink="http://www.w3.org/1999/xlink" x="0px" y="0px"
	 viewBox="0 0 64 64" style="enable-background:new 0 0 64 64;" xml:space="preserve">
<path d="M63.6,31.2l-2.7-1.7c0-0.3,0-0.5-0.1-0.8l2.3-2.2c0.4-0.3,0.4-0.9,0.1-1.3c-0.1-0.1-0.2-0.2-0.4-0.2l-3-1.1
	c-0.1-0.3-0.2-0.5-0.2-0.8l1.8-2.6c0.3-0.4,0.2-1-0.2-1.3c-0.1-0.1-0.3-0.1-0.4-0.2l-3.1-0.5c-0.1-0.2-0.2-0.5-0.4-0.7l1.3-2.9
	c0.2-0.5,0-1-0.4-1.2c-0.1-0.1-0.3-0.1-0.4-0.1l-3.2,0.1c-0.2-0.2-0.3-0.4-0.5-0.6l0.7-3.1c0.1-0.5-0.2-1-0.7-1.1
	c-0.1,0-0.3,0-0.4,0l-3.1,0.7c-0.2-0.2-0.4-0.3-0.6-0.5l0.1-3.2c0-0.5-0.4-0.9-0.9-1c-0.1,0-0.3,0-0.4,0.1L46,6.6
	c-0.2-0.1-0.5-0.3-0.7-0.4l-0.5-3.1c-0.1-0.5-0.6-0.8-1.1-0.8c-0.1,0-0.3,0.1-0.4,0.2l-2.6,1.8c-0.3-0.1-0.5-0.2-0.8-0.2l-1.1-3
	c-0.2-0.5-0.7-0.7-1.2-0.5c-0.1,0.1-0.3,0.1-0.4,0.2l-2.2,2.3c-0.3,0-0.5-0.1-0.8-0.1l-1.7-2.7C32.5,0,32-0.1,31.5,0.1
	c-0.1,0.1-0.2,0.2-0.3,0.3l-1.7,2.7c-0.3,0-0.5,0-0.8,0.1l-2.2-2.3c-0.4-0.4-0.9-0.4-1.3,0c-0.1,0.1-0.2,0.2-0.2,0.3l-1.1,3
	c-0.3,0.1-0.5,0.2-0.8,0.2l-2.6-1.8c-0.4-0.3-1-0.2-1.3,0.2c-0.1,0.1-0.1,0.3-0.2,0.4l-0.5,3.1c-0.2,0.1-0.5,0.2-0.7,0.4l-2.9-1.3
	c-0.5-0.2-1,0-1.2,0.4c-0.1,0.1-0.1,0.3-0.1,0.4l0.1,3.2c-0.2,0.2-0.4,0.3-0.6,0.5l-3.1-0.7C9.7,9,9.2,9.3,9.1,9.8
	c0,0.1,0,0.3,0,0.4l0.7,3.1c-0.2,0.2-0.3,0.4-0.5,0.6l-3.2-0.1c-0.5,0-0.9,0.4-1,0.9c0,0.1,0,0.3,0.1,0.4L6.6,18
	c-0.1,0.2-0.3,0.5-0.4,0.7l-3.1,0.5c-0.5,0.1-0.8,0.6-0.8,1.1c0,0.1,0.1,0.3,0.2,0.4l1.8,2.6c-0.1,0.3-0.2,0.5-0.2,0.8l-3,1.1
	c-0.5,0.2-0.7,0.7-0.5,1.2c0.1,0.1,0.1,0.3,0.2,0.4l2.3,2.2c0,0.3-0.1,0.5-0.1,0.8l-2.7,1.7c-0.4,0.3-0.6,0.8-0.3,1.3
	c0.1,0.1,0.2,0.2,0.3,0.3l2.7,1.7c0,0.3,0,0.5,0.1,0.8l-2.3,2.2c-0.4,0.3-0.4,0.9,0,1.3c0.1,0.1,0.2,0.2,0.4,0.2l3,1.1
	c0.1,0.3,0.2,0.5,0.2,0.8l-1.8,2.6c-0.3,0.4-0.2,1,0.2,1.3c0.1,0.1,0.3,0.1,0.4,0.2l3.1,0.5c0.1,0.2,0.2,0.5,0.4,0.7l-1.3,2.9
	c-0.2,0.5,0,1,0.5,1.2c0.1,0.1,0.3,0.1,0.4,0.1l3.2-0.1c0.2,0.2,0.3,0.4,0.5,0.6l-0.7,3.1c-0.1,0.5,0.2,1,0.7,1.1c0.1,0,0.3,0,0.4,0
	l3.1-0.7c0.2,0.2,0.4,0.3,0.6,0.5l-0.1,3.2c0,0.5,0.4,0.9,0.9,1c0.1,0,0.3,0,0.4-0.1l2.9-1.3c0.2,0.1,0.5,0.3,0.7,0.4l0.5,3.1
	c0.1,0.5,0.5,0.8,1.1,0.8c0.1,0,0.3-0.1,0.4-0.2l2.6-1.8c0.3,0.1,0.5,0.2,0.8,0.2l1.1,3c0.2,0.5,0.7,0.7,1.2,0.5
	c0.1-0.1,0.3-0.1,0.4-0.2l2.2-2.3c0.3,0,0.5,0.1,0.8,0.1l1.7,2.7c0.3,0.4,0.8,0.6,1.3,0.3c0.1-0.1,0.2-0.2,0.3-0.3l1.7-2.7
	c0.3,0,0.5,0,0.8-0.1l2.2,2.3c0.3,0.4,0.9,0.4,1.3,0.1c0.1-0.1,0.2-0.2,0.2-0.4l1.1-3c0.3-0.1,0.5-0.2,0.8-0.2l2.6,1.8
	c0.4,0.3,1,0.2,1.3-0.2c0.1-0.1,0.1-0.2,0.2-0.4l0.5-3.1c0.2-0.1,0.5-0.2,0.7-0.4l2.9,1.3c0.5,0.2,1,0,1.2-0.5
	c0.1-0.1,0.1-0.3,0.1-0.4l-0.1-3.2c0.2-0.2,0.4-0.3,0.6-0.5l3.1,0.7c0.5,0.1,1-0.2,1.1-0.7c0-0.1,0-0.3,0-0.4l-0.7-3.1
	c0.2-0.2,0.3-0.4,0.5-0.6l3.2,0.1c0.5,0,0.9-0.4,1-0.9c0-0.1,0-0.3-0.1-0.4L57.4,46c0.1-0.2,0.3-0.5,0.4-0.7l3.1-0.5
	c0.5-0.1,0.8-0.5,0.8-1c0-0.1-0.1-0.3-0.2-0.4l-1.8-2.6c0.1-0.3,0.2-0.5,0.2-0.8l3-1.1c0.5-0.2,0.7-0.7,0.5-1.2
	c-0.1-0.1-0.1-0.3-0.2-0.4l-2.3-2.2c0-0.3,0.1-0.5,0.1-0.8l2.7-1.7c0.4-0.3,0.6-0.8,0.3-1.3C63.8,31.4,63.7,31.3,63.6,31.2
	L63.6,31.2z M45.6,53.5c-1-0.2-1.6-1.3-1.4-2.3c0.2-1,1.2-1.6,2.2-1.4c1,0.2,1.7,1.3,1.4,2.3C47.6,53.1,46.6,53.7,45.6,53.5
	L45.6,53.5z M44.7,47.3c-0.9-0.2-1.9,0.4-2.1,1.3c0,0,0,0,0,0l-1,4.5c-3,1.4-6.3,2.1-9.7,2.1c-3.5,0-6.9-0.8-9.9-2.2l-1-4.4
	c-0.2-0.9-1.1-1.5-2.1-1.3c0,0,0,0,0,0l-3.9,0.8c-0.7-0.8-1.4-1.6-2-2.4h19.1c0.2,0,0.4,0,0.4-0.2v-6.8c0-0.2-0.1-0.2-0.4-0.2h-5.6
	v-4.3h6c0.6,0,3,0.2,3.7,3.2c0.2,0.9,0.8,4,1.1,5c0.4,1.1,1.8,3.3,3.4,3.3h9.5c0.1,0,0.2,0,0.3,0c-0.7,0.9-1.4,1.7-2.2,2.5
	L44.7,47.3L44.7,47.3z M18.2,53.4c-1,0.2-2-0.5-2.2-1.5c-0.2-1,0.4-2,1.4-2.2c1-0.2,2,0.4,2.3,1.5C19.9,52.2,19.2,53.2,18.2,53.4
	L18.2,53.4z M11,24c0.4,1,0,2.1-1,2.5c-1,0.4-2.1,0-2.5-1c-0.4-1,0-2.1,1-2.5S10.5,23,11,24z M8.7,29.3l4.1-1.8
	c0.9-0.4,1.3-1.4,0.9-2.3l-0.8-1.9h3.3v14.9H9.5C8.7,35.3,8.4,32.3,8.7,29.3L8.7,29.3z M26.7,27.8v-4.4h7.9c0.4,0,2.9,0.5,2.9,2.3
	c0,1.5-1.9,2.1-3.5,2.1C34,27.8,26.7,27.8,26.7,27.8z M55.4,31.8c0,0.6,0,1.2-0.1,1.7h-2.4c-0.2,0-0.3,0.2-0.3,0.4V35
	c0,2.6-1.5,3.2-2.7,3.3c-1.2,0.1-2.6-0.5-2.7-1.3c-0.7-4-1.9-4.9-3.8-6.4c2.4-1.5,4.8-3.7,4.8-6.6c0-3.2-2.2-5.2-3.7-6.2
	c-2.1-1.4-4.4-1.7-5-1.7H14.6c3.4-3.8,8-6.4,13.1-7.4l2.9,3.1c0.7,0.7,1.8,0.7,2.4,0.1l3.3-3.1c6.8,1.3,12.6,5.4,16,11.4l-2.2,5.1
	c-0.4,0.9,0,1.9,0.9,2.3l4.3,1.9C55.4,30.2,55.4,31,55.4,31.8L55.4,31.8z M30.6,6.2c0.8-0.7,2-0.7,2.7,0.1c0,0,0,0,0,0
	C34,7,34,8.2,33.2,8.9c0,0,0,0,0,0c-0.8,0.7-2,0.7-2.7-0.1c0,0,0,0,0,0C29.8,8.1,29.8,6.9,30.6,6.2z M52.8,24.1c0.4-1,1.5-1.4,2.5-1
	c1,0.4,1.4,1.5,1,2.5l0,0c-0.4,1-1.5,1.4-2.5,1C52.8,26.2,52.4,25,52.8,24.1z"/>
</svg>
