<?xml version="1.0" encoding="utf-8"?>
<!-- Generator: Adobe Illustrator 25.4.0, SVG Export Plug-In . SVG Version: 6.00 Build 0)  -->
<svg version="1.1" id="Calque_1" xmlns="http://www.w3.org/2000/svg" xmlns:xlink="http://www.w3.org/1999/xlink" x="0px" y="0px"
	 viewBox="0 0 70.9 13.2" style="enable-background:new 0 0 70.9 13.2;" xml:space="preserve">
<style type="text/css">
	.st0{fill:#FFFFFF;}
</style>
<g id="Calque_1_00000157993086146287561380000014876728208676988297_">
	<g id="Calque_2_00000167379954154550506500000016263088211729137834_">
		<g id="Calque_1-2">
			<path class="st0" d="M44.1,11.5H29.7C27,11.1,25,8.6,25.4,5.9c0.3-2.2,2.1-4,4.3-4.3h14.4c0.5,0,0.8-0.4,0.8-0.8S44.5,0,44.1,0
				H29.7c-3.6,0-6.6,2.9-6.6,6.6l0,0v2.9c0,1.1-0.9,2.1-2.1,2.1l0,0c-0.5,0-0.9-0.1-1.3-0.4L5.9,0.8C4.3-0.5,2-0.2,0.7,1.5
				C0.3,2.1,0,2.9,0,3.7v8.6c0,0.4,0.4,0.8,0.8,0.8c0.5,0,0.8-0.4,0.8-0.8V3.7c0-1.1,0.9-2.1,2.1-2.1l0,0C4.2,1.6,4.6,1.8,5,2
				l13.8,10.4c1.6,1.2,3.9,0.9,5.2-0.7c0.2-0.3,0.4-0.7,0.6-1.1c1.2,1.6,3.1,2.5,5.2,2.5h14.4c0.5,0,0.8-0.4,0.8-0.8
				C44.9,11.9,44.5,11.5,44.1,11.5z"/>
			<path class="st0" d="M64.3,0H52.7c-3.3,0-6.1,2.5-6.5,5.8H35.4c-0.4,0-0.8,0.4-0.8,0.8l0,0c0,0.4,0.4,0.8,0.8,0.8h10.8
				c0.4,3.3,3.2,5.8,6.5,5.8h11.5c3.6,0.1,6.7-2.7,6.8-6.3c0.1-3.6-2.7-6.7-6.3-6.8C64.6,0,64.5,0,64.3,0z M64.3,11.5H52.7
				c-2.7,0-4.9-2.1-5-4.8V6.6V6.5c0.1-2.7,2.3-4.8,5-4.8h11.5c2.7-0.4,5.3,1.5,5.6,4.3s-1.5,5.3-4.3,5.6
				C65.2,11.6,64.7,11.6,64.3,11.5z"/>
		</g>
	</g>
</g>
</svg>
