<?xml version="1.0" encoding="utf-8"?>
<!-- Generator: Adobe Illustrator 25.4.0, SVG Export Plug-In . SVG Version: 6.00 Build 0)  -->
<svg version="1.1" id="Calque_1" xmlns="http://www.w3.org/2000/svg" xmlns:xlink="http://www.w3.org/1999/xlink" x="0px" y="0px"
	 viewBox="0 0 25 25" style="enable-background:new 0 0 25 25;" xml:space="preserve">
<style type="text/css">
	.st0{fill:#FFFFFF;}
</style>
<g>
	<g id="Calque_1_00000018235348616625193070000017490494642178405259_">
		<g id="Calque_2_00000167379954154550506500000016263088211729137834_">
			<g id="Calque_1-2">
				<path class="st0" d="M23.3,12.5L23.3,12.5v2.9c0,1.1-0.9,2.1-2.1,2.1l0,0c-0.5,0-0.9-0.1-1.3-0.4L6.1,6.7
					c-1.6-1.3-3.9-1-5.2,0.7C0.5,8,0.2,8.8,0.2,9.6v8.6C0.2,18.6,0.6,19,1,19c0.5,0,0.8-0.4,0.8-0.8V9.6c0-1.1,0.9-2.1,2.1-2.1l0,0
					c0.5,0,0.9,0.2,1.3,0.4L19,18.3c1.6,1.2,3.9,0.9,5.2-0.7"/>
			</g>
		</g>
	</g>
	<path class="st0" d="M24.1,17.6c0.4-0.6,0.7-1.4,0.7-2.2V6.8C24.8,6.4,24.4,6,24,6c-0.5,0-0.8,0.4-0.8,0.8v8.6"/>
</g>
</svg>
