<?xml version="1.0" encoding="utf-8"?>
<!-- Generator: Adobe Illustrator 25.4.0, SVG Export Plug-In . SVG Version: 6.00 Build 0)  -->
<svg version="1.1" id="Calque_1" xmlns="http://www.w3.org/2000/svg" xmlns:xlink="http://www.w3.org/1999/xlink" x="0px" y="0px"
	 viewBox="0 0 384 512" style="enable-background:new 0 0 384 512;" xml:space="preserve">
<style type="text/css">
	.st0{fill:#56DCFC;}
</style>
<path class="st0" d="M384,64v384c0,13.5-8.4,25.5-21.1,30.1c-3.6,1.3-7.2,1.9-10.9,1.9c-9.3,0-18.4-4.1-24.6-11.5L64,152.4V448
	c0,17.7-14.3,32-32,32S0,465.7,0,448V64c0-13.5,8.4-25.5,21.1-30.1c12.6-4.5,26.8-0.8,35.5,9.6L320,359.6V64c0-17.7,14.3-32,32-32
	S384,46.3,384,64z"/>
</svg>
