<?xml version="1.0" encoding="utf-8"?>
<!-- Generator: Adobe Illustrator 25.4.0, SVG Export Plug-In . SVG Version: 6.00 Build 0)  -->
<svg version="1.1" id="Calque_1" xmlns="http://www.w3.org/2000/svg" xmlns:xlink="http://www.w3.org/1999/xlink" x="0px" y="0px"
	 viewBox="0 0 448 512" style="enable-background:new 0 0 448 512;" xml:space="preserve">
<style type="text/css">
	.st0{fill:#56DCFC;}
</style>
<path class="st0" d="M243.6,91.6l80.1,46.8c2.9,1.6,3,6.2,0,7.8l-95.2,55.6c-2.9,1.7-6.3,1.6-9,0l-95.2-55.6c-2.9-1.6-3-6.3,0-7.8
	l80.1-46.8V0L0,119.4v238.8l78.4-45.8v-93.6c-0.1-3.3,3.8-5.7,6.7-3.9l95.2,55.6c2.9,1.7,4.5,4.7,4.5,7.8v111.2
	c0.1,3.3-3.8,5.7-6.7,3.9L98,346.8l-78.4,45.8L224,512l204.4-119.4L350,346.8l-80.1,46.8c-2.8,1.7-6.8-0.5-6.7-3.9V278.5
	c0-3.3,1.8-6.3,4.5-7.8l95.2-55.6c2.8-1.7,6.8,0.5,6.7,3.9v93.6l78.4,45.8V119.4L243.6,0V91.6z"/>
</svg>
